<svg width="32" height="32" viewBox="0 0 32 32" fill="none" xmlns="http://www.w3.org/2000/svg">
<g clip-path="url(#clip0)">
<path d="M31.8667 5.6C31.7334 5.46669 31.6 5.33331 31.3334 5.33331H6L5.33331 1.86669C5.33331 1.6 4.93331 1.33337 4.66663 1.33337H0.666625C0.266688 1.33331 0 1.6 0 2C0 2.4 0.266687 2.66669 0.666687 2.66669H4.13338L7.33337 18.9334C7.73337 21.0667 9.73338 22.6667 11.8667 22.6667H27.2C27.6 22.6667 27.8667 22.4 27.8667 22C27.8667 21.6 27.6 21.3333 27.2 21.3333H12C10.9333 21.3333 9.86669 20.8 9.33331 19.8666L28.8 17.2C29.0667 17.2 29.3333 16.9333 29.3333 16.6667L32 6C32 6 32 5.73331 31.8667 5.6ZM28.1333 16L8.66663 18.5333L6.26662 6.53331H30.4L28.1333 16Z" fill="#FCD400" stroke="#FCD400" stroke-width="0.1"/>
<path d="M11.3333 24C9.46669 24 8 25.4667 8 27.3333C8 29.2 9.46669 30.6666 11.3333 30.6666C13.2 30.6666 14.6666 29.1999 14.6666 27.3333C14.6667 25.4667 13.2 24 11.3333 24ZM11.3333 29.3333C10.2666 29.3333 9.33331 28.3999 9.33331 27.3333C9.33331 26.2667 10.2666 25.3333 11.3333 25.3333C12.4 25.3333 13.3333 26.2667 13.3333 27.3333C13.3333 28.3999 12.4 29.3333 11.3333 29.3333Z" fill="#FCD400" stroke="#FCD400" stroke-width="0.1"/>
<path d="M24.6668 24C22.8001 24 21.3335 25.4667 21.3335 27.3333C21.3335 29.2 22.8002 30.6666 24.6668 30.6666C26.5335 30.6666 28.0001 29.1999 28.0001 27.3333C28.0001 25.4667 26.5334 24 24.6668 24ZM24.6668 29.3333C23.6001 29.3333 22.6668 28.3999 22.6668 27.3333C22.6668 26.2667 23.6001 25.3333 24.6668 25.3333C25.7335 25.3333 26.6668 26.2667 26.6668 27.3333C26.6668 28.3999 25.7334 29.3333 24.6668 29.3333Z" fill="#FCD400" stroke="#FCD400" stroke-width="0.1"/>
</g>
<defs>
<clipPath id="clip0">
<rect width="32" height="32" fill="white"/>
</clipPath>
</defs>
</svg>
