<svg width="23" height="16" viewBox="0 0 23 16" fill="none" xmlns="http://www.w3.org/2000/svg">
<path d="M11.0782 14.7825C11.308 15.0725 11.6806 15.0725 11.9104 14.7825L21.8276 2.2677C22.0575 1.9777 22.0575 1.50751 21.8276 1.21751C21.5978 0.927509 21.2252 0.927509 20.9954 1.21751L11.0782 13.7323C10.8484 14.0223 10.8484 14.4925 11.0782 14.7825Z" fill="#FCD400"/>
<path d="M11.9218 14.7825C12.1516 14.4925 12.1516 14.0223 11.9218 13.7323L2.00457 1.2175C1.77476 0.9275 1.40217 0.927501 1.17236 1.2175C0.942548 1.50751 0.942548 1.97769 1.17236 2.2677L11.0896 14.7825C11.3194 15.0725 11.692 15.0725 11.9218 14.7825Z" fill="#FCD400"/>
<path d="M11.0782 14.7825C11.308 15.0725 11.6806 15.0725 11.9104 14.7825L21.8276 2.2677C22.0575 1.9777 22.0575 1.50751 21.8276 1.21751C21.5978 0.927509 21.2252 0.927509 20.9954 1.21751L11.0782 13.7323C10.8484 14.0223 10.8484 14.4925 11.0782 14.7825Z" stroke="#FCD400" stroke-width="0.5"/>
<path d="M11.9218 14.7825C12.1516 14.4925 12.1516 14.0223 11.9218 13.7323L2.00457 1.2175C1.77476 0.9275 1.40217 0.927501 1.17236 1.2175C0.942548 1.50751 0.942548 1.97769 1.17236 2.2677L11.0896 14.7825C11.3194 15.0725 11.692 15.0725 11.9218 14.7825Z" stroke="#FCD400" stroke-width="0.5"/>
</svg>
