<svg width="32" height="32" viewBox="0 0 32 32" fill="none" xmlns="http://www.w3.org/2000/svg">
<g clip-path="url(#clip0)">
<path d="M16.1042 7.01282C13.849 7.01282 12.0134 8.84842 12.0134 11.1036C12.0134 13.3588 13.849 15.1944 16.1042 15.1944C18.3594 15.1944 20.195 13.3588 20.195 11.1036C20.195 8.84842 18.3594 7.01282 16.1042 7.01282ZM16.1042 14.0256C14.493 14.0256 13.1822 12.7148 13.1822 11.1036C13.1822 9.49243 14.493 8.18162 16.1042 8.18162C17.7154 8.18162 19.0262 9.49243 19.0262 11.1036C19.0262 12.7148 17.7154 14.0256 16.1042 14.0256Z" fill="#FCD400" stroke="#FCD400" stroke-width="0.6"/>
<path d="M23.9252 3.28258C21.8085 1.16588 18.9941 0 16.0008 0C13.0069 0 10.193 1.16588 8.07629 3.28258C4.15906 7.19923 3.67225 14.5685 7.02204 19.0333L16.0008 32L24.966 19.0514C28.3293 14.5685 27.8425 7.19923 23.9252 3.28258ZM24.0181 18.3683L16.0008 29.9464L7.97052 18.3502C4.93222 14.2991 5.3676 7.64395 8.90322 4.10892C10.799 2.21312 13.3195 1.1688 16.0008 1.1688C18.682 1.1688 21.2025 2.21312 23.0989 4.10892C26.6345 7.64395 27.0699 14.2991 24.0181 18.3683Z" fill="#FCD400" stroke="#FCD400" stroke-width="0.6"/>
</g>
<defs>
<clipPath id="clip0">
<rect width="32" height="32" fill="white"/>
</clipPath>
</defs>
</svg>
