<svg width="32" height="32" viewBox="0 0 32 32" fill="none" xmlns="http://www.w3.org/2000/svg">
<g clip-path="url(#clip0)">
<path d="M9.85375 6.41337C9.57706 6.41337 9.35268 6.63768 9.35268 6.91443C9.35268 7.52225 8.85818 8.01675 8.25037 8.01675C7.64256 8.01675 7.14806 7.52225 7.14806 6.91443C7.14806 6.30662 7.64256 5.81212 8.25037 5.81212C8.52706 5.81212 8.75143 5.58781 8.75143 5.31106C8.75143 5.03431 8.52712 4.81 8.25037 4.81C7.09 4.81 6.146 5.75406 6.146 6.91437C6.146 8.07469 7.09006 9.01875 8.25037 9.01875C9.41068 9.01875 10.3547 8.07469 10.3547 6.91437C10.3548 6.63768 10.1304 6.41337 9.85375 6.41337Z" fill="#FCD400" stroke="#FCD400" stroke-width="0.3"/>
<path d="M9.85375 12.2923C9.57706 12.2923 9.35268 12.5166 9.35268 12.7933C9.35268 13.4012 8.85818 13.8957 8.25037 13.8957C7.64256 13.8957 7.14806 13.4012 7.14806 12.7933C7.14806 12.1855 7.64256 11.691 8.25037 11.691C8.52706 11.691 8.75143 11.4667 8.75143 11.19C8.75143 10.9132 8.52712 10.6889 8.25037 10.6889C7.09 10.6889 6.146 11.633 6.146 12.7933C6.146 13.9536 7.09006 14.8977 8.25037 14.8977C9.41068 14.8977 10.3547 13.9536 10.3547 12.7933C10.3548 12.5167 10.1304 12.2923 9.85375 12.2923Z" fill="#FCD400" stroke="#FCD400" stroke-width="0.3"/>
<path d="M15.7329 13.3612H11.9918C11.7151 13.3612 11.4907 13.5855 11.4907 13.8623C11.4907 14.139 11.715 14.3633 11.9918 14.3633H15.7329C16.0096 14.3633 16.234 14.139 16.234 13.8623C16.234 13.5855 16.0097 13.3612 15.7329 13.3612Z" fill="#FCD400" stroke="#FCD400" stroke-width="0.3"/>
<path d="M15.7329 11.2234H11.9918C11.7151 11.2234 11.4907 11.4477 11.4907 11.7245C11.4907 12.0012 11.715 12.2255 11.9918 12.2255H15.7329C16.0096 12.2255 16.234 12.0012 16.234 11.7245C16.234 11.4477 16.0097 11.2234 15.7329 11.2234Z" fill="#FCD400" stroke="#FCD400" stroke-width="0.3"/>
<path d="M14.664 19.2401H11.9918C11.7151 19.2401 11.4907 19.4644 11.4907 19.7411C11.4907 20.0179 11.715 20.2422 11.9918 20.2422H14.664C14.9407 20.2422 15.1651 20.0179 15.1651 19.7411C15.1651 19.4644 14.9407 19.2401 14.664 19.2401Z" fill="#FCD400" stroke="#FCD400" stroke-width="0.3"/>
<path d="M15.7329 17.1023H11.9918C11.7151 17.1023 11.4907 17.3266 11.4907 17.6034C11.4907 17.8801 11.715 18.1044 11.9918 18.1044H15.7329C16.0096 18.1044 16.234 17.8801 16.234 17.6034C16.234 17.3266 16.0097 17.1023 15.7329 17.1023Z" fill="#FCD400" stroke="#FCD400" stroke-width="0.3"/>
<path d="M20.543 7.48224H11.9918C11.7151 7.48224 11.4907 7.70655 11.4907 7.9833C11.4907 8.26005 11.715 8.48436 11.9918 8.48436H20.5429C20.8196 8.48436 21.044 8.26005 21.044 7.9833C21.044 7.70655 20.8197 7.48224 20.543 7.48224Z" fill="#FCD400" stroke="#FCD400" stroke-width="0.3"/>
<path d="M18.4052 5.34442H11.9918C11.7151 5.34442 11.4907 5.56873 11.4907 5.84548C11.4907 6.12223 11.715 6.34655 11.9918 6.34655H18.4052C18.6818 6.34655 18.9062 6.12223 18.9062 5.84548C18.9062 5.56873 18.6819 5.34442 18.4052 5.34442Z" fill="#FCD400" stroke="#FCD400" stroke-width="0.3"/>
<path d="M9.85375 18.1712C9.57706 18.1712 9.35268 18.3955 9.35268 18.6722C9.35268 19.2801 8.85818 19.7746 8.25037 19.7746C7.64256 19.7746 7.14806 19.2801 7.14806 18.6722C7.14806 18.0644 7.64256 17.5699 8.25037 17.5699C8.52706 17.5699 8.75143 17.3456 8.75143 17.0689C8.75143 16.7921 8.52712 16.5678 8.25037 16.5678C7.09 16.5678 6.146 17.5119 6.146 18.6722C6.146 19.8325 7.09006 20.7766 8.25037 20.7766C9.41068 20.7766 10.3547 19.8325 10.3547 18.6722C10.3548 18.3955 10.1304 18.1712 9.85375 18.1712Z" fill="#FCD400" stroke="#FCD400" stroke-width="0.3"/>
<path d="M22.6806 0H4.50939C3.64377 0 2.93945 0.70425 2.93945 1.56994V24.0167C2.93945 24.8824 3.6437 25.5866 4.50939 25.5866H13.595C13.8717 25.5866 14.0961 25.3623 14.0961 25.0856C14.0961 24.8089 13.8718 24.5845 13.595 24.5845H4.50939C4.19627 24.5845 3.94152 24.3298 3.94152 24.0166V1.56994C3.94152 1.25681 4.19627 1.00206 4.50939 1.00206H22.6806C22.9937 1.00206 23.2485 1.25681 23.2485 1.56994V18.1379C23.2485 18.4146 23.4728 18.6389 23.7495 18.6389C24.0262 18.6389 24.2506 18.4146 24.2506 18.1379V1.56994C24.2505 0.70425 23.5463 0 22.6806 0Z" fill="#FCD400" stroke="#FCD400" stroke-width="0.3"/>
<path d="M27.4112 20.3184C26.9455 20.2719 26.4801 20.4039 26.1117 20.6836C25.8183 20.1913 25.3179 19.8419 24.739 19.7839C24.2732 19.7376 23.8078 19.8696 23.4395 20.1492C23.146 19.6568 22.6457 19.3075 22.0667 19.2495C21.7111 19.214 21.356 19.2825 21.0439 19.4413V13.0606C21.0439 12.5425 20.8235 12.0459 20.4391 11.6981C20.055 11.3506 19.5375 11.1809 19.019 11.2328C18.0941 11.3254 17.3696 12.1618 17.3696 13.1368V19.5337L15.8967 21.0066C15.114 21.7893 14.7981 22.8998 15.0517 23.9773L16.1698 28.7296C16.6229 30.6553 18.321 32.0001 20.2992 32.0001H24.8184C27.1575 32.0001 29.0606 30.0971 29.0606 27.7579V22.2225C29.0607 21.2473 28.3362 20.411 27.4112 20.3184ZM28.0585 27.7578C28.0585 29.5444 26.605 30.9979 24.8185 30.9979H20.2993C18.7883 30.9979 17.4913 29.9707 17.1453 28.4999L16.0271 23.7476C15.8536 23.0104 16.0698 22.2505 16.6053 21.715L17.3696 20.9507V22.6806C17.3696 22.9573 17.5939 23.1816 17.8707 23.1816C18.1474 23.1816 18.3717 22.9573 18.3717 22.6806V13.1368C18.3717 12.6702 18.6999 12.2718 19.119 12.2299C19.3597 12.2058 19.5898 12.2809 19.7668 12.4411C19.9417 12.5993 20.0419 12.8251 20.0419 13.0606V21.879C20.0419 22.1557 20.2662 22.3801 20.543 22.3801C20.8197 22.3801 21.044 22.1558 21.044 21.879V21.0773C21.044 20.8418 21.1442 20.616 21.3191 20.4578C21.4962 20.2976 21.7263 20.2224 21.967 20.2466C22.386 20.2886 22.7142 20.6869 22.7142 21.1535V22.4133C22.7142 22.69 22.9385 22.9144 23.2153 22.9144C23.492 22.9144 23.7163 22.6901 23.7163 22.4133V21.6116C23.7163 21.3761 23.8165 21.1503 23.9914 20.9921C24.1685 20.8319 24.3987 20.7568 24.6393 20.7809C25.0583 20.8229 25.3865 21.2213 25.3865 21.6878V22.9477C25.3865 23.2244 25.6108 23.4488 25.8876 23.4488C26.1643 23.4488 26.3887 23.2244 26.3887 22.9477V22.146C26.3887 21.9105 26.4888 21.6847 26.6637 21.5265C26.8408 21.3663 27.0708 21.2911 27.3116 21.3154C27.7306 21.3573 28.0588 21.7556 28.0588 22.2222V27.7578H28.0585Z" fill="#FCD400" stroke="#FCD400" stroke-width="0.3"/>
</g>
<defs>
<clipPath id="clip0">
<rect width="32" height="32" fill="white"/>
</clipPath>
</defs>
</svg>
