<svg width="32" height="32" viewBox="0 0 32 32" fill="none" xmlns="http://www.w3.org/2000/svg">
<g clip-path="url(#clip0)">
<path d="M32 16C32 7.17789 24.8221 0 16 0C7.17789 0 0 7.17789 0 16C0 20.6598 2.00378 24.8599 5.19331 27.7865L5.17818 27.7999L5.69716 28.2374C5.73091 28.2659 5.76756 28.2892 5.80131 28.3171C6.07709 28.5457 6.36276 28.7628 6.65367 28.9728C6.74793 29.0409 6.84218 29.1089 6.93818 29.1753C7.24887 29.3894 7.56771 29.5924 7.89353 29.785C7.96451 29.8269 8.03607 29.8676 8.10764 29.9084C8.46429 30.1114 8.82851 30.3028 9.20145 30.4785C9.2288 30.4913 9.25673 30.503 9.28407 30.5158C10.4995 31.0807 11.7969 31.4956 13.1537 31.7405C13.1892 31.7469 13.2247 31.7533 13.2608 31.7597C13.682 31.8324 14.1079 31.8906 14.5391 31.9296C14.5914 31.9343 14.6438 31.9372 14.6967 31.9418C15.1261 31.9773 15.5601 32 16 32C16.4358 32 16.8657 31.9773 17.2928 31.943C17.3469 31.9383 17.401 31.9354 17.4551 31.9308C17.8828 31.8918 18.3052 31.8353 18.7223 31.7638C18.7584 31.7574 18.7951 31.751 18.8311 31.744C20.1676 31.5043 21.4464 31.0988 22.6461 30.5484C22.6903 30.528 22.7351 30.5088 22.7793 30.4879C23.1383 30.3191 23.4892 30.137 23.833 29.9433C23.9185 29.895 24.0035 29.8461 24.0884 29.7961C24.4015 29.6116 24.7092 29.4191 25.0083 29.2143C25.1159 29.1409 25.2212 29.0636 25.3277 28.9868C25.5831 28.8029 25.8339 28.6132 26.0777 28.4148C26.1318 28.3712 26.19 28.3334 26.2429 28.2886L26.7753 27.8441L26.7596 27.8307C29.977 24.903 32 20.6836 32 16ZM1.16364 16C1.16364 7.81905 7.81905 1.16364 16 1.16364C24.1809 1.16364 30.8364 7.81905 30.8364 16C30.8364 20.4084 28.9018 24.3718 25.8391 27.0912C25.6681 26.9731 25.4959 26.8672 25.3196 26.7788L20.3933 24.3159C19.9511 24.0948 19.6765 23.6503 19.6765 23.1564V21.4359C19.7905 21.2951 19.911 21.1357 20.0355 20.9606C20.6732 20.0599 21.1846 19.058 21.5575 17.9799C22.2947 17.6297 22.7706 16.8954 22.7706 16.0663V14.0038C22.7706 13.4993 22.5856 13.01 22.2545 12.6255V9.91011C22.2848 9.60815 22.3919 7.904 21.159 6.49833C20.0867 5.27418 18.3511 4.65455 16 4.65455C13.6489 4.65455 11.9133 5.27418 10.841 6.49775C9.60814 7.90342 9.7152 9.60756 9.74545 9.90953V12.6249C9.41498 13.0095 9.22938 13.4988 9.22938 14.0032V16.0657C9.22938 16.7063 9.5168 17.3039 10.009 17.7071C10.4803 19.5532 11.4502 20.9507 11.8086 21.4243V23.1081C11.8086 23.5828 11.5497 24.0192 11.1325 24.2473L6.53207 26.7567C6.38545 26.8364 6.24 26.9295 6.09455 27.0336C3.06967 24.3153 1.16364 20.3764 1.16364 16ZM24.7034 28.0041C24.4998 28.1519 24.2927 28.295 24.0826 28.4317C23.986 28.4945 23.89 28.5574 23.7917 28.6185C23.5171 28.7884 23.2378 28.9501 22.9527 29.1014C22.8899 29.1345 22.8265 29.166 22.7631 29.1985C22.1079 29.5343 21.4301 29.8228 20.7337 30.0573C20.7092 30.0655 20.6848 30.0742 20.6598 30.0823C20.295 30.2033 19.9255 30.311 19.552 30.4035C19.5508 30.4035 19.5497 30.4041 19.5485 30.4041C19.1715 30.4972 18.7898 30.5745 18.4058 30.638C18.3953 30.6397 18.3849 30.642 18.3744 30.6438C18.0131 30.7025 17.6489 30.745 17.2835 30.777C17.2189 30.7828 17.1543 30.7869 17.0892 30.7916C16.7279 30.8189 16.3648 30.8364 16 30.8364C15.6311 30.8364 15.2634 30.8183 14.8975 30.791C14.834 30.7863 14.7706 30.7823 14.7078 30.7764C14.3389 30.7439 13.9718 30.7002 13.6081 30.6409C13.5919 30.638 13.5756 30.6351 13.5593 30.6321C12.7901 30.5036 12.0332 30.3145 11.296 30.0672C11.2733 30.0596 11.25 30.0515 11.2273 30.0439C10.8614 29.9194 10.4995 29.7815 10.144 29.6291C10.1417 29.6279 10.1388 29.6268 10.1364 29.6256C9.80015 29.4807 9.47025 29.3201 9.14444 29.1508C9.10196 29.1287 9.05891 29.1078 9.01702 29.0851C8.71971 28.9263 8.4288 28.7546 8.14196 28.5754C8.05702 28.5219 7.97265 28.4678 7.88887 28.4131C7.62473 28.2403 7.36407 28.0605 7.1104 27.8703C7.08422 27.8505 7.0592 27.8295 7.03302 27.8097C7.05164 27.7993 7.07025 27.7888 7.08887 27.7783L11.6893 25.2689C12.4806 24.8372 12.9722 24.0093 12.9722 23.1081L12.9716 21.0124L12.8378 20.8506C12.825 20.8361 11.5671 19.3059 11.0918 17.234L11.0388 17.0036L10.8404 16.8751C10.5606 16.6941 10.393 16.3916 10.393 16.0652V14.0026C10.393 13.7321 10.5076 13.4801 10.7171 13.2911L10.9091 13.1177V9.87695L10.9039 9.80073C10.9021 9.78676 10.7305 8.38749 11.7161 7.264C12.5574 6.30516 13.9991 5.81818 16 5.81818C17.9933 5.81818 19.4304 6.30109 20.274 7.25294C21.2585 8.3648 21.0973 9.79025 21.0961 9.80189L21.0909 13.1188L21.2829 13.2922C21.4918 13.4807 21.607 13.7332 21.607 14.0038V16.0663C21.607 16.4812 21.3248 16.8576 20.9199 16.9827L20.6307 17.0717L20.5376 17.3597C20.1943 18.4262 19.7056 19.4112 19.0854 20.2874C18.9329 20.5027 18.7846 20.6935 18.6572 20.8396L18.5129 21.0042V23.1564C18.5129 24.0943 19.0342 24.9379 19.8732 25.3568L24.7994 27.8196C24.8308 27.8353 24.8617 27.8516 24.8925 27.8679C24.8303 27.9151 24.7663 27.9587 24.7034 28.0041Z" fill="#FCD400" stroke="#FCD400" stroke-width="0.5"/>
</g>
<defs>
<clipPath id="clip0">
<rect width="32" height="32" fill="white"/>
</clipPath>
</defs>
</svg>
