<svg width="32" height="32" viewBox="0 0 32 32" fill="none" xmlns="http://www.w3.org/2000/svg">
<path d="M28.125 7.375H24.4688C24.1236 7.375 23.8438 7.65481 23.8438 8C23.8438 8.34519 24.1236 8.625 24.4688 8.625H28.125C28.8832 8.625 29.5 9.24181 29.5 10V17.1326C29.5 17.9494 28.8354 18.6139 28.0186 18.6139H27.375V14C27.375 12.5526 26.1974 11.375 24.75 11.375H15.5312V9.46875C15.5312 9.12356 15.2514 8.84375 14.9062 8.84375C14.5611 8.84375 14.2812 9.12356 14.2812 9.46875V11.375H3.875C3.11681 11.375 2.5 10.7582 2.5 10C2.5 9.24181 3.11681 8.625 3.875 8.625H8.01075C8.35594 8.625 8.63575 8.34519 8.63575 8C8.63575 7.65481 8.35594 7.375 8.01075 7.375H3.875C2.42756 7.375 1.25 8.55256 1.25 10C1.25 10.0347 1.25131 10.0691 1.25262 10.1035C1.25125 10.1208 1.25 10.138 1.25 10.1556V29.375C1.25 30.8224 2.42756 32 3.875 32L28.125 31.9993C29.5724 31.9993 30.75 30.8217 30.75 29.3743V10C30.75 8.55262 29.5724 7.375 28.125 7.375ZM26.125 29.375C26.125 30.1235 25.5238 30.7338 24.7789 30.7493H24.75C24.7451 30.7493 24.7404 30.7499 24.7355 30.75H3.875C3.11681 30.75 2.5 30.1332 2.5 29.375V12.2349C2.90019 12.482 3.37112 12.625 3.875 12.625H24.75C25.5082 12.625 26.125 13.2418 26.125 14V18.6139H20.5C18.3633 18.6139 16.625 20.3522 16.625 22.4889C16.625 24.6256 18.3633 26.3639 20.5 26.3639H26.125V29.375ZM29.5 29.3743C29.5 30.1325 28.8832 30.7493 28.125 30.7493H26.9854C27.2322 30.3493 27.375 29.8786 27.375 29.3751V26.364H27.75C28.4028 26.364 29.007 26.1538 29.5 25.7984V29.3743ZM29.5 23.364C29.5 24.3289 28.7149 25.114 27.75 25.114H20.5C19.0526 25.114 17.875 23.9364 17.875 22.489C17.875 21.0416 19.0526 19.864 20.5 19.864H28.0186C28.5644 19.864 29.0729 19.7024 29.5 19.4256V23.364Z" fill="#FCD400"/>
<path d="M19.3125 4.073C17.6933 4.073 16.376 5.39031 16.376 7.00956C16.376 8.62881 17.6934 9.94612 19.3125 9.94612C20.9318 9.94612 22.2491 8.62881 22.2491 7.00956C22.2491 5.39031 20.9318 4.073 19.3125 4.073ZM19.3125 8.69612C18.3825 8.69612 17.626 7.93956 17.626 7.00956C17.626 6.07956 18.3826 5.323 19.3125 5.323C20.2425 5.323 20.9991 6.07956 20.9991 7.00956C20.9991 7.93956 20.2425 8.69612 19.3125 8.69612Z" fill="#FCD400"/>
<path d="M13.25 0C11.6308 0 10.3135 1.31731 10.3135 2.93656C10.3135 4.55581 11.6309 5.87313 13.25 5.87313C14.8693 5.87313 16.1866 4.55581 16.1866 2.93656C16.1866 1.31731 14.8693 0 13.25 0ZM13.25 4.62313C12.32 4.62313 11.5635 3.86656 11.5635 2.93656C11.5635 2.00656 12.3201 1.25 13.25 1.25C14.18 1.25 14.9366 2.00656 14.9366 2.93656C14.9366 3.86656 14.18 4.62313 13.25 4.62313Z" fill="#FCD400"/>
<path d="M23.9173 1.04121H23.5626V0.686585C23.5626 0.341397 23.2828 0.0615845 22.9376 0.0615845C22.5924 0.0615845 22.3126 0.341397 22.3126 0.686585V1.04121H21.958C21.6128 1.04121 21.333 1.32102 21.333 1.66621C21.333 2.0114 21.6128 2.29121 21.958 2.29121H22.3126V2.6459C22.3126 2.99108 22.5924 3.2709 22.9376 3.2709C23.2828 3.2709 23.5626 2.99108 23.5626 2.6459V2.29121H23.9173C24.2624 2.29121 24.5423 2.0114 24.5423 1.66621C24.5423 1.32102 24.2624 1.04121 23.9173 1.04121Z" fill="#FCD400"/>
<path d="M11.2292 6.10938C10.8841 6.10938 10.6042 6.38925 10.6042 6.73438V9.26562C10.6042 9.61081 10.8841 9.89062 11.2292 9.89062C11.5744 9.89062 11.8542 9.61081 11.8542 9.26562V6.73438C11.8542 6.38919 11.5744 6.10938 11.2292 6.10938Z" fill="#FCD400"/>
<path d="M21.3218 22.1251C21.2049 22.0088 21.0443 21.9419 20.8793 21.9419C20.7149 21.9419 20.5543 22.0088 20.4374 22.1251C20.3211 22.2413 20.2549 22.4025 20.2549 22.5669C20.2549 22.7313 20.3211 22.8926 20.4374 23.0088C20.5543 23.1256 20.7149 23.1919 20.8793 23.1919C21.0443 23.1919 21.2049 23.1256 21.3218 23.0088C21.438 22.8926 21.5049 22.7313 21.5049 22.5669C21.5049 22.4025 21.438 22.2413 21.3218 22.1251Z" fill="#FCD400"/>
<path d="M5.396 16.25C5.05081 16.25 4.771 16.5299 4.771 16.875V22.0208C4.771 22.3659 5.05081 22.6458 5.396 22.6458C5.74118 22.6458 6.021 22.3659 6.021 22.0208V16.875C6.021 16.5299 5.74118 16.25 5.396 16.25Z" fill="#FCD400"/>
<path d="M5.83738 23.7356C5.72113 23.6194 5.56051 23.5525 5.39551 23.5525C5.23113 23.5525 5.06988 23.6194 4.95363 23.7356C4.83738 23.8519 4.77051 24.0131 4.77051 24.1775C4.77051 24.3419 4.83738 24.5031 4.95363 24.6194C5.06988 24.7356 5.23113 24.8025 5.39551 24.8025C5.56051 24.8025 5.72113 24.7356 5.83738 24.6194C5.95426 24.5031 6.02051 24.3419 6.02051 24.1775C6.02051 24.0131 5.95426 23.8519 5.83738 23.7356Z" fill="#FCD400"/>
</svg>
